<?xml version="1.0" standalone="no"?>
<!DOCTYPE svg PUBLIC "-//W3C//DTD SVG 20010904//EN"
 "http://www.w3.org/TR/2001/REC-SVG-20010904/DTD/svg10.dtd">
<svg version="1.0" xmlns="http://www.w3.org/2000/svg"
 width="700.000000pt" height="700.000000pt" viewBox="0 0 700.000000 700.000000"
 preserveAspectRatio="xMidYMid meet">
<metadata>
Created by potrace 1.14, written by Peter Selinger 2001-2017
</metadata>
<g transform="translate(0.000000,700.000000) scale(0.100000,-0.100000)"
fill="#000000" stroke="none">
<path d="M3278 6995 c-1 -1 -42 -5 -89 -9 -47 -4 -96 -9 -109 -11 -12 -2 -48
-7 -79 -11 -57 -6 -76 -9 -121 -19 -34 -7 -69 -14 -105 -21 -16 -3 -75 -16
-130 -30 -1000 -251 -1846 -941 -2296 -1871 -32 -68 -59 -125 -59 -127 0 -3
-11 -29 -24 -58 -52 -116 -142 -389 -162 -491 -2 -10 -6 -27 -9 -37 -3 -10 -8
-29 -10 -42 -3 -13 -11 -57 -20 -98 -22 -115 -30 -160 -41 -255 -26 -230 -26
-667 1 -826 2 -13 6 -46 9 -74 9 -78 22 -152 51 -285 21 -96 91 -339 114 -395
5 -11 25 -65 46 -120 63 -166 251 -535 312 -610 4 -6 29 -42 54 -80 123 -187
322 -417 525 -605 124 -115 428 -350 454 -350 5 0 10 -4 10 -10 0 -5 4 -10 10
-10 5 0 40 -19 77 -43 272 -174 705 -348 1048 -423 72 -16 211 -41 274 -50 25
-3 57 -8 71 -10 165 -26 661 -25 840 1 14 2 45 6 70 9 41 6 110 17 185 31 367
68 750 215 1125 432 216 125 484 337 693 548 460 464 800 1094 931 1725 8 36
19 96 21 110 9 59 17 107 20 120 2 8 7 47 11 85 3 39 8 84 11 100 8 56 10 539
2 605 -4 36 -10 90 -13 120 -10 88 -27 198 -41 260 -3 14 -8 39 -11 55 -11 63
-64 266 -78 300 -8 19 -13 35 -11 35 6 0 -57 171 -107 294 -58 141 -177 369
-265 509 -436 687 -1084 1198 -1848 1455 -163 55 -429 121 -555 137 -19 3 -46
7 -60 10 -13 2 -52 7 -86 11 -33 3 -74 8 -90 10 -32 5 -540 14 -546 9z"/>
</g>
</svg>
